<svg xmlns="http://www.w3.org/2000/svg" viewBox="0 0 539 169.86"><defs><style>.cls-1{fill:#2e5100;}.cls-2{fill:#fff;}</style></defs><title>Asset 1</title><g id="Layer_2" data-name="Layer 2"><g id="Layer_2-2" data-name="Layer 2"><path d="M180.87,16.76v-10H213V50.32q0,11.53-5.86,17.3t-15,5.77a26.78,26.78,0,0,1-19.66-8.13l6.33-8.79q6.43,6.15,12.57,6.15a10.36,10.36,0,0,0,7.42-2.93q3.07-2.93,3.07-8.79V16.76Z"/><path d="M265.58,66.06a27.53,27.53,0,0,1-37.81,0,24.93,24.93,0,0,1-7.57-18.39,24.92,24.92,0,0,1,7.57-18.39,27.53,27.53,0,0,1,37.81,0,24.92,24.92,0,0,1,7.56,18.39A24.93,24.93,0,0,1,265.58,66.06Zm-30.3-6.52a16.44,16.44,0,0,0,22.78,0,16.23,16.23,0,0,0,4.49-11.86,16.25,16.25,0,0,0-4.49-11.87,16.45,16.45,0,0,0-22.78,0,16.25,16.25,0,0,0-4.49,11.87A16.23,16.23,0,0,0,235.28,59.53Z"/><path d="M295.73,45.59V72.82H285.15v-70h10.59V31.69a16.79,16.79,0,0,1,6.85-7.28,19.44,19.44,0,0,1,9.88-2.65q8.51,0,13.75,5.2t5.25,15V72.82H320.88V45.21q0-13.9-11.53-13.9A13.86,13.86,0,0,0,299.8,35Q295.73,38.6,295.73,45.59Z"/><path d="M356.8,45.59V72.82H346.21V22.53H356.8v9.17a19.07,19.07,0,0,1,16.73-9.92q8.51,0,13.75,5.2t5.25,15V72.82H381.94V45.21q0-13.9-11.53-13.9A13.86,13.86,0,0,0,360.86,35Q356.8,38.6,356.8,45.59Z"/><path class="cls-1" d="M172.69,149.82V83.74h11.15v28.64h32.8V83.74H227.8v66.08H216.65v-27h-32.8v27Z"/><path class="cls-1" d="M239.63,152.18V99.53h10.59v53q0,7.94-4.77,12.62a15.87,15.87,0,0,1-11.53,4.68,18.06,18.06,0,0,1-12.34-5l4.92-7.94Q229.7,160,233,160a6,6,0,0,0,5-2.08A8.87,8.87,0,0,0,239.63,152.18Zm.47-62.67a6.62,6.62,0,1,1,4.72,2A6.45,6.45,0,0,1,240.1,89.51Z"/><path class="cls-1" d="M306.27,149.82h-9.64V143.1q-6.24,7.47-16.73,7.47a19.19,19.19,0,0,1-13-4.44,14.88,14.88,0,0,1-5.15-11.87q0-7.42,5.48-11.1t14.84-3.69h13.71v-1.89q0-10-11.15-10-7,0-14.56,5.1L265.34,106a32.55,32.55,0,0,1,20.79-7.28q8.89,0,14.51,4.49t5.62,14.13ZM272.66,91.4A5.73,5.73,0,0,1,271,87.24a5.65,5.65,0,0,1,5.77-5.77,5.74,5.74,0,0,1,4.16,1.65,5.51,5.51,0,0,1,1.7,4.11,5.81,5.81,0,0,1-5.86,5.86A5.5,5.5,0,0,1,272.66,91.4Zm23,39.7v-4.25H283.77q-11.44,0-11.44,7.19a6.39,6.39,0,0,0,2.83,5.62q2.84,1.94,7.9,1.94a14.33,14.33,0,0,0,8.84-2.83A9.08,9.08,0,0,0,295.68,131.1Zm-1.42-38a5.81,5.81,0,0,1,0-11.62,5.68,5.68,0,0,1,4.11,1.65,5.5,5.5,0,0,1,1.7,4.11,5.58,5.58,0,0,1-1.75,4.16A5.71,5.71,0,0,1,294.26,93.1Z"/><path class="cls-1" d="M331.6,149.82H321V79.68H331.6Z"/><path class="cls-1" d="M382.74,134.78a14.14,14.14,0,0,1-5.2,11.49q-5.2,4.3-13.33,4.3a35.69,35.69,0,0,1-11.39-2A34.34,34.34,0,0,1,342.38,143l5.1-8.23q8.79,6.62,17,6.62a8.86,8.86,0,0,0,5.67-1.65,5.15,5.15,0,0,0,2.08-4.21q0-3.78-10-6.8a11.7,11.7,0,0,0-1.13-.38q-15.69-4.25-15.69-14.18a13.45,13.45,0,0,1,5.44-11.2q5.43-4.21,14.13-4.21a29.4,29.4,0,0,1,16.45,5.1l-4,7.85a23.72,23.72,0,0,0-13.33-4.07A12.17,12.17,0,0,0,358,109a4.46,4.46,0,0,0-2.36,4.12,3.74,3.74,0,0,0,2.46,3.59,23.57,23.57,0,0,0,4.77,1.61q3.07.76,5.43,1.51t4.58,1.7a29.82,29.82,0,0,1,4.77,2.65Q382.74,127.6,382.74,134.78Z"/><path class="cls-1" d="M407.79,108v25.52a8.29,8.29,0,0,0,1.89,5.72A6.72,6.72,0,0,0,415,141.4q3.4,0,6.52-3.31l4.35,7.47a18,18,0,0,1-12.34,5A15.87,15.87,0,0,1,402,145.89q-4.78-4.68-4.77-12.62V108h-6.34v-8.5h6.34V83.74h10.59V99.53H421V108Z"/><path class="cls-1" d="M481.05,129.3H441.64a11.45,11.45,0,0,0,5,8.84,17.58,17.58,0,0,0,10.59,3.35q9.45,0,14.37-6l6.05,6.62q-8.13,8.42-21.17,8.42a25.21,25.21,0,0,1-18-7q-7.42-7-7.42-18.91t7.56-18.86a25.37,25.37,0,0,1,17.82-7A25.81,25.81,0,0,1,473.87,105q7.18,6.19,7.19,17.06ZM441.64,121h28.83q0-6.33-4-9.74a14.51,14.51,0,0,0-9.79-3.4,16.73,16.73,0,0,0-10.44,3.55A11.44,11.44,0,0,0,441.64,121Z"/><path class="cls-1" d="M503.27,122.59v27.22H492.68V99.53h10.59v9.17A19.07,19.07,0,0,1,520,98.77q8.51,0,13.75,5.2T539,119v30.82H528.41v-27.6q0-13.9-11.53-13.9a13.86,13.86,0,0,0-9.55,3.64Q503.26,115.6,503.27,122.59Z"/><rect class="cls-1" width="159" height="159"/><polygon class="cls-2" points="114.38 150 114.38 133 133 133 115 107 128 107 103 78 114 78 87 40 87 150 114.38 150"/></g></g></svg>